<svg width="32" height="24" fill="none" xmlns="http://www.w3.org/2000/svg"><path d="M20.575 9.922L16.91 1.778l-.002-.004h0a.636.636 0 01.845-.822.64.64 0 01.34.347l3.803 8.623H30.5a.6.6 0 110 1.198h-.603l-4.845 11.607s0 0 0 0a.6.6 0 01-.552.372h0H7.504a.6.6 0 01-.596-.372h0L7 22.69l-.093.038L20.575 9.922zm0 0h-9.15l3.666-8.144h0l.002-.004a.637.637 0 00-.845-.822.639.639 0 00-.34.347l-3.803 8.623H1.5a.6.6 0 00-.424 1.023.6.6 0 00.424.175h.603l18.472-1.198zM28.6 11.12L24.103 21.9H7.897L3.4 11.12h25.2z" fill="#fff" stroke="#fff" stroke-width=".2"/></svg>